<?xml version="1.0" encoding="utf-8"?>
<!-- Generator: Adobe Illustrator 18.1.1, SVG Export Plug-In . SVG Version: 6.00 Build 0)  -->
<!DOCTYPE svg PUBLIC "-//W3C//DTD SVG 1.1//EN" "http://www.w3.org/Graphics/SVG/1.1/DTD/svg11.dtd">
<svg version="1.1" id="Layer_1" xmlns="http://www.w3.org/2000/svg" xmlns:xlink="http://www.w3.org/1999/xlink" x="0px" y="0px"
	 viewBox="0 0 576 297.3" enable-background="new 0 0 576 297.3" xml:space="preserve">
<path fill="#FFFFFF" stroke="#000000" stroke-miterlimit="10" d="M290,165.7"/>
<path fill="#808080" d="M278.9,208l10.7-11.6l14.7,15.6l20,23.3l15.3,16.7l-39.3,43l122.7-0.3V170l-44,37.3l-54-62
	c0,0,56.2-58.3,69.3-66.7s35.6-16,47.3-16.7c11.8-0.7,27.2,3.3,36.7,9.3s19.6,16.3,24.7,24s8,18,8,18l4,16c0,0,1.6,29,0,42.7
	s-12.4,34.8-16.7,38.7c-4.3,3.8-13.3,12-13.3,12l-24,12.7l0.7,58.7c-4.2,0.1,56.8-9.7,84.3-47.7c16.1-17.3,23.5-40.8,27.7-60.3
	c4.2-20.1,4.2-27,2-52S564,71.8,549.9,55.7c-7.8-10.3-21.9-30.8-57.7-44.3C481,5.3,441.6,0,441.6,0c-45.6,0-84.7,32.7-84.7,32.7
	l-40,36.7l-29.3,29L269.9,79l-17-17c0,0-8.6-10-18.7-19.3C224.1,33.3,218.9,30,218.9,30l-14-10c0,0-16.4-8.7-22.7-10.7
	c-6.3-2-14.2-4.6-19.3-6C157.8,1.9,139.6,0,136.2,0c-3.3,0-24,0-47.3,8c-31.4,11.8-49.3,28.5-58,40.7S16.8,72.4,10.9,86
	s-9.8,27.9-11.3,46s0,34,0,34s0.7,16.9,7.3,36s18.7,39.3,18.7,39.3s6.6,11.3,18,22c11.4,10.7,24,16.7,24,16.7l22,9.3
	c0,0,22.3,8,42,8s39.1-5.2,52-10s21.3-10.7,21.3-10.7l21.3-16.7l13.3-12 M230.9,165.3l-21.3,26c0,0-8.8,13.3-28,25.3
	c-19.2,12-33.4,17.3-42,18.7c-8.6,1.3-22.7-1-30-2.7C99,230.1,84.8,225,72.2,208c-9.9-13-15.3-38-15.3-38s-6.1-20-2.7-40
	s13.6-37.7,23.3-46.7s21.7-16,34.7-18.7c24.4-5.3,46.7,4,46.7,4s5.9,0.8,16,8.7s16.6,12,28,24s24,25.3,24,25.3l18,22L230.9,165.3z"
	/>
</svg>
